<svg viewBox="0 0 1879.69 1557.47" xmlns="http://www.w3.org/2000/svg" xmlns:xlink="http://www.w3.org/1999/xlink" overflow="hidden"><defs></defs><g id="Слой_2"><g id="OBJECTS"><rect x="236.26" y="417.28" width="138.42" height="1140.19" fill="#B3B3B2"/><rect x="236.26" y="417.28" width="138.42" height="68.03" fill="#878787"/><rect x="236.26" y="950.88" width="138.42" height="135.29" fill="#878787"/><rect x="1491.34" y="417.28" width="138.42" height="1140.19" fill="#B3B3B2"/><rect x="1491.34" y="417.28" width="138.42" height="68.03" fill="#878787"/><rect x="1491.34" y="950.88" width="138.42" height="135.29" fill="#878787"/><rect x="0" y="0" width="1879.69" height="417.28" fill="#FFD601"/><path d="M0 388.63 388.63 0 206 0 0 206 0 388.63Z" fill="#3C3C3B"/><path d="M625.62 0 208.34 417.28 390.96 417.28 808.24 0 625.62 0Z" fill="#3C3C3B"/><path d="M1045.23 0 627.95 417.28 810.57 417.28 1227.85 0 1045.23 0Z" fill="#3C3C3B"/><path d="M1464.84 0 1047.57 417.28 1230.19 417.28 1647.47 0 1464.84 0Z" fill="#3C3C3B"/><path d="M1879.69 4.76 1467.18 417.28 1649.8 417.28 1879.69 187.38 1879.69 4.76Z" fill="#3C3C3B"/><rect x="0" y="862.01" width="1879.69" height="163.89" fill="#FFD601"/><path d="M31.37 862.01 0 893.39 0 1007.93 145.91 862.01 31.37 862.01Z" fill="#3C3C3B"/><path d="M294.56 862.01 130.67 1025.9 245.22 1025.9 409.1 862.01 294.56 862.01Z" fill="#3C3C3B"/><path d="M557.75 862.01 393.86 1025.9 508.4 1025.9 672.29 862.01 557.75 862.01Z" fill="#3C3C3B"/><path d="M820.93 862.01 657.05 1025.9 771.59 1025.9 935.48 862.01 820.93 862.01Z" fill="#3C3C3B"/><path d="M1084.12 862.01 920.24 1025.9 1034.78 1025.9 1198.66 862.01 1084.12 862.01Z" fill="#3C3C3B"/><path d="M1347.31 862.01 1183.42 1025.9 1297.97 1025.9 1461.85 862.01 1347.31 862.01Z" fill="#3C3C3B"/><path d="M1610.5 862.01 1446.61 1025.9 1561.15 1025.9 1725.04 862.01 1610.5 862.01Z" fill="#3C3C3B"/><path d="M1879.69 862.01 1873.68 862.01 1709.8 1025.9 1824.34 1025.9 1879.69 970.55 1879.69 862.01Z" fill="#3C3C3B"/></g></g></svg>